<?xml version="1.0" standalone="no"?>
<!DOCTYPE svg PUBLIC "-//W3C//DTD SVG 20010904//EN"
 "http://www.w3.org/TR/2001/REC-SVG-20010904/DTD/svg10.dtd">
<svg version="1.0" xmlns="http://www.w3.org/2000/svg"
 width="5000.000000pt" height="5000.000000pt" viewBox="0 0 5000.000000 5000.000000"
 preserveAspectRatio="xMidYMid meet">

<g transform="translate(0.000000,5000.000000) scale(0.100000,-0.100000)"
fill="#000000" stroke="none">
<path d="M7029 43141 c-436 -80 -767 -378 -876 -790 -23 -83 -26 -116 -26
-251 0 -135 3 -168 26 -255 53 -200 183 -409 339 -542 120 -103 -220 64 3518
-1723 751 -358 2157 -1030 3125 -1493 968 -462 1763 -843 1767 -846 7 -7 119
-527 813 -3776 85 -401 214 -1004 286 -1340 177 -828 279 -1309 539 -2525 121
-569 315 -1476 430 -2015 430 -2012 553 -2588 615 -2880 35 -165 150 -703 255
-1195 105 -492 227 -1061 270 -1265 43 -203 165 -773 270 -1265 105 -492 234
-1095 286 -1340 663 -3108 823 -3857 831 -3887 4 -16 1 -23 -10 -23 -9 0 -18
-4 -21 -8 -3 -5 49 -222 115 -483 66 -261 223 -879 349 -1374 125 -495 290
-1145 366 -1445 l138 -545 95 -95 c176 -176 387 -285 616 -320 44 -7 114 -22
155 -35 41 -13 111 -28 155 -35 59 -8 3012 -10 11175 -8 10508 3 11098 4
11158 21 309 85 537 309 612 601 39 152 22 369 -41 511 -37 85 -126 211 -192
270 -87 80 -201 147 -315 186 l-97 34 -10677 3 -10677 2 -11 58 c-7 31 -59
275 -116 542 -57 266 -99 487 -94 490 10 6 100 28 960 235 355 86 796 192 980
237 184 44 558 134 830 200 272 65 680 164 905 218 851 205 1845 445 2263 546
1124 271 1333 321 1842 444 300 72 682 164 850 205 168 41 364 88 435 105 228
55 945 228 1410 340 248 60 761 184 1140 275 380 91 1079 260 1555 375 835
201 1192 287 3155 761 501 120 1133 273 1405 339 541 131 1622 391 2655 640
1225 295 1228 296 1344 350 170 82 307 191 418 337 32 41 80 103 106 137 60
76 129 216 159 321 l23 80 0 5295 0 5295 -23 79 c-96 333 -338 577 -679 683
l-88 28 -12699 5 -12700 5 -268 1255 c-147 690 -387 1815 -534 2500 -489 2291
-573 2685 -594 2770 -26 105 -112 284 -178 370 -68 90 -198 210 -285 262 -39
25 -1127 549 -2417 1165 -1290 617 -3274 1565 -4410 2108 -1136 543 -2085 996
-2110 1007 -116 51 -218 70 -390 73 -91 2 -186 0 -211 -4z m14515 -13719 c9
-14 579 -2692 575 -2697 -7 -6 -2607 -140 -2613 -134 -2 2 -81 366 -176 809
-94 443 -230 1077 -301 1409 -71 332 -129 608 -129 612 0 11 2637 12 2644 1z
m3261 -14 c6 -28 67 -316 280 -1333 91 -434 184 -877 206 -983 23 -107 37
-197 33 -201 -14 -12 -2313 -126 -2323 -115 -5 5 -31 131 -59 279 -51 269
-109 580 -328 1734 -63 333 -114 613 -114 623 0 17 49 18 1150 18 l1150 0 5
-22z m5032 -653 c84 -368 202 -881 262 -1140 l108 -470 -26 -7 c-37 -10 -2925
-156 -2934 -148 -6 5 -148 674 -292 1380 -18 91 -74 361 -124 601 -50 240 -91
441 -91 448 0 8 367 10 1471 9 l1472 -3 154 -670z m3775 640 c5 -16 53 -246
108 -510 55 -264 150 -720 212 -1012 61 -293 110 -535 107 -537 -6 -6 -3001
-158 -3039 -154 -33 3 -35 5 -52 73 -10 39 -140 538 -288 1111 -149 572 -270
1046 -270 1052 0 9 388 11 1607 10 l1607 -3 8 -30z m5122 26 c3 -5 38 -186 77
-402 39 -217 112 -625 163 -907 61 -337 89 -515 82 -518 -15 -5 -3119 -165
-3123 -160 -2 2 -64 282 -139 622 -74 341 -171 783 -214 983 -44 200 -80 370
-80 377 0 12 263 14 1614 14 920 0 1617 -4 1620 -9z m3911 -821 l0 -825 -1500
-77 c-825 -42 -1503 -74 -1507 -70 -6 7 -308 1752 -308 1785 0 16 84 17 1658
15 l1657 -3 0 -825z m3 -2057 l-3 -648 -295 -37 c-270 -33 -1020 -129 -1920
-244 -195 -25 -375 -46 -400 -47 l-44 -2 -8 50 c-5 28 -60 351 -124 719 -63
368 -113 670 -112 671 5 4 2769 182 2841 184 l67 1 -2 -647z m-3465 405 c27
-118 259 -1450 254 -1455 -4 -4 -87 -17 -185 -29 -97 -13 -602 -77 -1122 -143
-1613 -206 -1681 -215 -1689 -205 -5 5 -32 115 -60 244 -27 129 -102 474 -166
765 -142 648 -139 634 -133 640 4 4 2944 200 3059 204 31 1 38 -3 42 -21z
m-4993 -305 c0 -4 36 -179 80 -388 212 -1011 290 -1388 288 -1390 -2 -1 -97
-13 -213 -28 -115 -14 -765 -97 -1443 -183 -677 -87 -1235 -155 -1237 -152 -3
3 -28 90 -55 194 -26 104 -139 539 -250 967 -111 429 -199 781 -196 784 3 3
677 50 1498 103 821 54 1501 98 1511 99 9 0 17 -2 17 -6z m-3810 -248 c0 -5
263 -1157 404 -1770 29 -126 52 -231 51 -232 -1 -2 -251 -35 -556 -73 -305
-39 -972 -125 -1484 -190 -511 -65 -931 -117 -933 -115 -6 6 -151 698 -392
1870 -21 105 -45 220 -53 258 -14 66 -14 67 7 68 11 0 658 42 1436 93 1446 96
1520 100 1520 91z m-4853 -425 c81 -387 448 -2134 458 -2176 5 -25 119 -8
-995 -149 -415 -53 -892 -114 -1059 -135 -168 -22 -307 -37 -309 -35 -3 3 -71
357 -153 787 -81 431 -184 975 -228 1210 -45 235 -81 436 -81 447 0 19 6 21
53 22 28 0 549 33 1157 74 608 40 1111 72 1119 71 10 -1 22 -36 38 -116z
m-2953 -1341 c147 -688 265 -1253 263 -1255 -2 -2 -179 -27 -393 -54 -214 -27
-780 -99 -1259 -160 -478 -61 -882 -113 -896 -116 -22 -4 -28 -1 -33 20 -3 14
-51 236 -106 493 -99 466 -256 1204 -389 1823 -38 179 -68 327 -66 329 4 3
2484 167 2571 170 l40 1 268 -1251z m20074 -2036 l-3 -1277 -530 -128 c-291
-70 -707 -171 -924 -223 -217 -53 -395 -94 -397 -92 -2 2 -24 120 -48 263 -24
142 -95 552 -156 909 -139 811 -256 1495 -255 1495 2 2 2284 329 2298 329 16
1 17 -64 15 -1276z m-2838 870 c0 -4 52 -296 115 -648 145 -803 317 -1759 348
-1932 21 -119 22 -133 8 -137 -9 -3 -194 -48 -411 -100 -441 -106 -827 -199
-1725 -416 -335 -81 -611 -147 -612 -146 -2 2 -35 152 -242 1101 -93 429 -222
1022 -287 1318 -64 295 -114 540 -111 543 3 4 570 87 1259 185 689 98 1341
192 1448 208 107 16 198 29 203 30 4 1 7 -2 7 -6z m-4797 -760 c9 -43 55 -262
102 -488 47 -225 149 -709 225 -1075 76 -366 178 -849 225 -1075 47 -225 84
-416 83 -423 -2 -11 -169 -55 -578 -153 -316 -76 -885 -213 -1265 -305 -379
-91 -697 -168 -705 -170 -13 -3 -25 32 -63 178 -26 101 -99 383 -162 628 -64
245 -201 776 -306 1180 -105 404 -228 881 -275 1059 -47 178 -83 325 -82 326
4 3 2738 392 2764 394 19 1 23 -9 37 -76z m-3555 -1015 c73 -315 238 -1034
367 -1598 129 -564 249 -1087 267 -1163 19 -84 28 -141 22 -146 -5 -4 -229
-61 -499 -126 -557 -134 -1338 -322 -2038 -491 -263 -64 -480 -114 -482 -112
-2 1 -107 507 -235 1123 -128 616 -303 1464 -390 1885 -87 421 -157 766 -156
768 3 2 2958 427 3002 431 6 1 65 -236 142 -571z m-4976 -263 c15 -71 93 -443
173 -825 80 -382 202 -963 271 -1290 69 -327 177 -842 240 -1143 64 -302 113
-551 110 -554 -3 -3 -209 -54 -458 -115 -249 -60 -619 -149 -823 -198 -203
-49 -537 -129 -742 -179 -205 -49 -382 -91 -394 -93 -21 -3 -24 5 -50 142 -15
80 -84 444 -153 810 -69 366 -168 892 -221 1170 -53 278 -152 804 -221 1170
-69 366 -135 718 -148 783 -12 64 -22 117 -22 118 9 5 2351 337 2376 336 l35
-2 27 -130z m-3158 -313 c6 -10 906 -4208 906 -4226 0 -7 -47 -23 -112 -39
-193 -46 -916 -220 -1567 -377 -848 -205 -833 -202 -841 -193 -4 4 -67 287
-140 628 -148 698 -386 1812 -640 3000 -94 440 -172 811 -173 824 l-2 24 1270
183 c1460 209 1292 186 1299 176z"/>
<path d="M22765 10704 c-345 -37 -614 -114 -875 -251 -856 -447 -1302 -1354
-1115 -2265 168 -821 837 -1471 1700 -1652 311 -65 668 -63 985 5 459 100 904
362 1206 713 239 276 394 591 469 946 37 173 46 489 20 672 -84 596 -418 1118
-935 1461 -265 176 -591 301 -920 352 -101 16 -450 28 -535 19z"/>
<path d="M41670 10700 c-678 -74 -1286 -436 -1644 -979 -171 -259 -279 -544
-321 -847 -22 -152 -16 -481 10 -624 121 -664 551 -1222 1180 -1531 315 -154
643 -229 1008 -229 377 0 697 72 1021 230 379 184 713 492 922 847 478 811
338 1830 -342 2499 -334 329 -767 543 -1249 619 -120 19 -466 27 -585 15z"/>
</g>
</svg>
