<?xml version="1.0" standalone="no"?>
<!DOCTYPE svg PUBLIC "-//W3C//DTD SVG 20010904//EN"
 "http://www.w3.org/TR/2001/REC-SVG-20010904/DTD/svg10.dtd">
<svg version="1.0" xmlns="http://www.w3.org/2000/svg"
 width="360.000000pt" height="360.000000pt" viewBox="0 0 360.000000 360.000000"
 preserveAspectRatio="xMidYMid meet">

<g transform="translate(0.000000,360.000000) scale(0.100000,-0.100000)"
fill="#000000" stroke="none">
<path d="M1680 1200 l0 -220 45 0 45 0 0 83 c0 92 15 127 55 127 44 0 55 -23
55 -121 l0 -89 46 0 46 0 -4 116 -3 116 -33 29 c-37 34 -102 40 -140 13 l-22
-15 0 90 0 91 -45 0 -45 0 0 -220z"/>
<path d="M1000 1262 c-62 -27 -90 -73 -90 -143 0 -48 5 -63 27 -90 65 -77 187
-78 242 -1 l22 31 -36 7 c-26 5 -46 1 -71 -12 -32 -17 -37 -17 -62 -4 -15 9
-28 23 -30 33 -3 15 7 17 97 17 l101 0 0 33 c0 46 -31 97 -71 119 -33 18 -100
23 -129 10z m94 -78 c27 -26 18 -34 -39 -34 -30 0 -55 4 -55 9 0 18 31 41 55
41 13 0 31 -7 39 -16z"/>
<path d="M1418 1253 c-28 -18 -48 -52 -48 -82 0 -35 34 -62 100 -80 43 -11 65
-22 65 -31 0 -21 -56 -26 -70 -6 -15 19 -84 10 -93 -12 -9 -23 42 -60 94 -68
86 -13 164 32 164 93 0 38 -49 80 -102 88 -56 8 -73 19 -65 39 8 21 45 21 68
0 13 -12 28 -15 54 -10 39 8 40 9 25 37 -25 47 -138 66 -192 32z"/>
<path d="M2094 1252 c-67 -42 -93 -102 -74 -170 20 -76 102 -123 187 -107 49
9 109 69 118 118 10 51 -16 117 -57 147 -45 33 -131 39 -174 12z m121 -77 c48
-47 20 -125 -45 -125 -76 0 -97 112 -27 140 35 14 46 12 72 -15z"/>
<path d="M2506 1263 c-4 -4 -34 -6 -67 -5 l-59 3 0 -211 0 -211 43 3 42 3 3
77 3 76 27 -14 c36 -18 76 -18 118 2 98 47 101 219 5 269 -31 16 -102 21 -115
8z m59 -73 c45 -17 56 -87 19 -124 -24 -24 -80 -20 -98 6 -25 35 -20 83 10
107 31 24 34 24 69 11z"/>
</g>
</svg>
