<?xml version="1.0" standalone="no"?>
<!DOCTYPE svg PUBLIC "-//W3C//DTD SVG 20010904//EN"
 "http://www.w3.org/TR/2001/REC-SVG-20010904/DTD/svg10.dtd">
<svg version="1.0" xmlns="http://www.w3.org/2000/svg"
 width="980.000000pt" height="980.000000pt" viewBox="0 0 980.000000 980.000000"
 preserveAspectRatio="xMidYMid meet">

<g transform="translate(0.000000,980.000000) scale(0.100000,-0.100000)"
fill="#000000" stroke="none">
<path d="M4995 7749 c-322 -31 -532 -286 -610 -739 -14 -79 -35 -315 -35 -387
l0 -33 -297 -2 -297 -3 -38 -265 c-20 -146 -69 -492 -108 -770 -39 -278 -83
-594 -99 -704 l-27 -198 115 4 c389 16 809 -41 1376 -186 138 -35 357 -91 488
-125 474 -121 721 -161 1045 -168 182 -5 222 -3 222 8 0 7 -13 108 -30 224
-16 115 -63 453 -105 750 -42 297 -98 700 -126 895 -27 195 -56 396 -62 445
l-13 90 -295 3 -296 2 -11 173 c-24 336 -93 576 -213 738 -141 191 -334 273
-584 248z m208 -130 c60 -11 150 -57 204 -103 102 -89 185 -261 228 -476 21
-103 45 -326 45 -417 l0 -33 -602 2 -603 3 3 100 c19 679 279 1010 725 924z
m-683 -1304 c0 -38 -31 -82 -68 -96 -32 -12 -87 5 -107 34 -15 22 -20 73 -9
101 12 30 24 16 24 -28 0 -35 5 -48 22 -60 54 -38 98 -3 98 77 l1 52 19 -24
c11 -13 20 -38 20 -56z m1165 -44 c6 -5 21 -12 35 -16 38 -9 70 25 70 75 0 48
16 52 28 8 17 -64 -25 -121 -89 -121 -81 0 -126 83 -81 151 l17 26 5 -56 c3
-32 10 -62 15 -67z"/>
<path d="M3476 4569 c-390 -32 -828 -154 -1181 -330 -133 -66 -133 -66 50 -15
356 99 864 168 1115 151 41 -2 120 -7 175 -10 193 -12 457 -58 709 -125 133
-35 213 -60 581 -179 580 -187 823 -238 1191 -248 221 -6 397 6 559 38 291 59
595 180 810 324 75 51 167 124 154 125 -3 0 -34 -12 -70 -26 -175 -70 -396
-130 -594 -161 -155 -25 -608 -25 -782 0 -278 39 -575 107 -1203 273 -600 158
-1092 218 -1514 183z"/>
<path d="M4358 4123 c7 -3 16 -2 19 1 4 3 -2 6 -13 5 -11 0 -14 -3 -6 -6z"/>
<path d="M4530 4071 c80 -27 276 -99 435 -161 646 -249 815 -289 1220 -290
259 -1 332 8 526 64 200 58 426 165 554 261 78 59 98 81 43 47 -64 -39 -175
-91 -277 -131 -384 -150 -779 -193 -1197 -132 -213 32 -409 84 -814 216 -291
95 -582 176 -623 174 -7 0 53 -22 133 -48z"/>
<path d="M5640 3260 c-24 -24 -25 -48 -4 -78 17 -24 70 -30 105 -12 25 14 26
71 1 93 -25 23 -78 21 -102 -3z"/>
<path d="M3430 2930 l0 -311 58 3 57 3 5 158 5 159 28 24 c47 40 141 32 164
-15 4 -9 10 -86 13 -171 l5 -155 58 -3 58 -3 -3 173 c-3 152 -6 178 -24 213
-52 99 -210 114 -281 27 l-23 -27 0 118 0 117 -60 0 -60 0 0 -310z"/>
<path d="M3050 3211 c-92 -28 -138 -93 -125 -178 10 -69 49 -105 161 -149 53
-20 104 -46 115 -57 43 -46 9 -117 -55 -117 -37 0 -81 29 -91 60 -5 17 -15 20
-66 20 -55 0 -59 -2 -59 -23 0 -32 43 -91 86 -118 57 -35 174 -38 233 -7 74
38 108 108 91 184 -15 65 -60 99 -190 145 -67 24 -100 53 -100 91 0 35 32 68
65 68 38 0 75 -21 81 -47 6 -21 12 -23 70 -23 71 0 76 7 49 59 -41 80 -164
122 -265 92z"/>
<path d="M4109 3076 c-92 -33 -139 -94 -147 -191 -7 -89 12 -149 62 -200 82
-81 228 -89 323 -18 108 82 109 293 3 372 -67 49 -166 64 -241 37z m141 -101
c39 -20 60 -63 60 -120 0 -84 -45 -135 -121 -135 -33 0 -47 6 -75 34 -31 31
-34 39 -34 96 0 72 10 94 53 120 38 24 78 25 117 5z"/>
<path d="M4515 3082 c-3 -3 -5 -158 -5 -344 l0 -338 60 0 60 0 1 158 c0 114 3
151 11 137 36 -71 153 -97 238 -53 79 41 116 123 108 240 -9 118 -76 196 -178
206 -63 6 -112 -12 -149 -53 l-30 -34 -3 41 -3 42 -52 2 c-29 0 -55 -1 -58 -4z
m295 -107 c39 -20 60 -63 60 -120 0 -82 -47 -135 -120 -135 -71 0 -120 53
-120 130 0 107 92 171 180 125z"/>
<path d="M5074 3081 c-2 -2 -4 -157 -4 -343 l0 -338 60 0 60 0 0 155 0 156 30
-35 c38 -43 86 -60 156 -54 104 9 166 88 172 220 4 65 0 85 -21 132 -57 124
-221 157 -306 61 l-30 -34 -3 42 -3 42 -53 0 c-30 0 -56 -2 -58 -4z m295 -105
c41 -22 62 -60 63 -114 1 -63 -15 -98 -54 -122 -52 -31 -101 -26 -146 14 -35
33 -37 37 -37 99 0 56 4 69 25 92 43 46 97 57 149 31z"/>
<path d="M5639 3079 c-6 -3 -8 -99 -7 -230 l3 -224 58 -3 57 -3 -2 233 -3 232
-48 1 c-27 0 -53 -2 -58 -6z"/>
<path d="M5862 3082 c-4 -1 -6 -104 -6 -230 l1 -227 57 -3 56 -3 0 129 c0 155
5 184 36 216 48 47 131 38 164 -17 17 -28 20 -51 20 -180 l0 -148 58 3 57 3 3
120 c6 246 -33 331 -156 343 -65 6 -114 -11 -151 -53 l-30 -34 -3 41 -3 42
-48 0 c-26 1 -50 0 -55 -2z"/>
<path d="M6515 3078 c-81 -28 -131 -118 -129 -233 2 -82 20 -128 66 -172 41
-39 76 -53 134 -53 59 0 105 20 137 61 l27 34 0 -58 c0 -108 -38 -157 -123
-157 -43 0 -54 5 -84 35 -31 31 -41 35 -88 35 l-54 0 11 -32 c31 -91 107 -138
223 -138 114 1 191 50 215 140 6 23 9 138 8 290 l-3 253 -50 1 -50 1 -5 -45
-5 -44 -18 27 c-37 56 -135 82 -212 55z m172 -108 c109 -66 62 -250 -65 -250
-123 0 -167 169 -66 249 34 27 89 27 131 1z"/>
<path d="M4150 2345 c0 -8 5 -15 10 -15 6 0 10 7 10 15 0 8 -4 15 -10 15 -5 0
-10 -7 -10 -15z"/>
<path d="M4050 2265 c0 -50 4 -85 10 -85 6 0 10 35 10 85 0 50 -4 85 -10 85
-6 0 -10 -35 -10 -85z"/>
<path d="M5610 2265 c0 -89 17 -119 22 -39 6 88 70 88 76 0 4 -59 22 -61 22
-2 0 28 -7 52 -19 67 -17 22 -22 23 -50 12 -30 -11 -31 -11 -31 18 0 16 -4 29
-10 29 -6 0 -10 -35 -10 -85z"/>
<path d="M3503 2315 c-6 -14 -7 -25 -2 -25 5 0 9 -19 9 -42 0 -54 11 -71 41
-65 l24 4 -22 8 c-19 6 -23 15 -23 46 0 32 5 42 23 49 l22 9 -22 7 c-13 3 -23
13 -23 20 0 22 -14 16 -27 -11z"/>
<path d="M3655 2285 c-29 -28 -31 -51 -9 -83 16 -23 67 -31 80 -11 3 6 -1 10
-12 9 -34 -4 -43 0 -54 21 -9 16 -8 26 5 45 29 45 82 21 72 -33 -6 -30 1 -53
14 -53 5 0 9 29 9 65 0 37 -4 65 -10 65 -5 0 -10 -5 -10 -10 0 -7 -6 -7 -19 0
-29 15 -39 13 -66 -15z"/>
<path d="M3862 2294 c-24 -17 -30 -61 -12 -95 12 -22 68 -27 88 -7 18 18 16
-12 -4 -40 -18 -26 -37 -28 -59 -6 -20 20 -33 11 -15 -11 7 -8 27 -15 46 -15
47 0 64 29 64 112 0 61 -12 96 -23 66 -4 -10 -7 -11 -18 0 -18 16 -40 15 -67
-4z m73 -28 c13 -19 14 -29 5 -45 -11 -21 -21 -25 -50 -21 -19 3 -30 19 -30
46 0 46 50 59 75 20z"/>
<path d="M4150 2245 c0 -37 4 -65 10 -65 6 0 10 28 10 65 0 37 -4 65 -10 65
-6 0 -10 -28 -10 -65z"/>
<path d="M4257 2303 c-11 -10 -8 -123 3 -123 6 0 10 16 10 36 0 44 15 74 38
74 29 0 42 -21 42 -67 0 -24 5 -43 10 -43 6 0 10 22 10 48 0 67 -43 105 -78
70 -10 -10 -14 -10 -21 0 -4 7 -10 9 -14 5z"/>
<path d="M4478 2303 c-9 -2 -22 -18 -29 -35 -10 -26 -10 -35 2 -57 18 -32 78
-42 99 -16 18 21 5 31 -15 11 -20 -20 -25 -20 -53 0 -35 24 -26 34 33 34 30 0
55 2 55 5 0 30 -43 69 -70 64 -3 -1 -12 -3 -22 -6z m60 -35 c3 -15 -4 -18 -38
-18 -38 0 -40 1 -30 21 14 25 63 23 68 -3z"/>
<path d="M4760 2290 c-25 -25 -26 -72 -2 -93 22 -20 63 -22 80 -5 9 9 12 7 12
-9 0 -21 -24 -53 -38 -53 -4 0 -18 7 -30 16 -27 19 -41 12 -22 -11 17 -21 73
-19 93 3 13 14 17 38 17 90 0 65 -12 100 -23 70 -4 -10 -7 -11 -18 0 -19 18
-46 15 -69 -8z m74 -16 c21 -21 20 -40 -4 -64 -30 -30 -70 -10 -70 36 0 41 44
58 74 28z"/>
<path d="M4969 2292 c-15 -13 -22 -30 -22 -52 0 -38 23 -60 63 -60 55 0 80 70
40 110 -25 25 -51 25 -81 2z m74 -23 c14 -23 1 -66 -24 -72 -29 -8 -62 27 -53
56 4 12 12 25 18 30 17 11 48 4 59 -14z"/>
<path d="M5160 2290 c-41 -41 -14 -110 41 -110 28 0 68 25 57 35 -4 4 -17 0
-30 -9 -28 -20 -33 -20 -52 0 -26 26 -18 34 34 34 43 0 50 3 50 19 0 22 -35
51 -62 51 -10 0 -27 -9 -38 -20z m78 -22 c3 -15 -4 -18 -37 -18 -43 0 -50 7
-29 28 18 18 62 11 66 -10z"/>
<path d="M5352 2301 c-25 -16 -10 -55 26 -65 17 -5 32 -15 32 -23 0 -22 -29
-27 -50 -8 -18 16 -20 16 -20 2 0 -18 36 -31 67 -25 10 2 19 13 21 26 3 18 -4
26 -32 37 -19 8 -37 19 -41 25 -10 16 25 25 46 12 28 -18 34 -14 14 8 -19 21
-41 25 -63 11z"/>
<path d="M5833 2300 c-30 -12 -40 -56 -22 -89 18 -32 78 -41 99 -16 18 22 4
32 -18 12 -23 -21 -36 -21 -56 -1 -26 26 -18 34 34 34 43 0 50 3 50 19 0 20
-35 52 -55 50 -5 0 -20 -4 -32 -9z m65 -32 c3 -15 -4 -18 -37 -18 -43 0 -50 7
-29 28 18 18 62 11 66 -10z"/>
<path d="M6000 2245 c0 -37 4 -65 10 -65 6 0 10 20 10 45 0 39 4 47 25 57 14
6 25 15 25 20 0 11 -7 10 -31 -2 -13 -7 -19 -7 -19 0 0 5 -4 10 -10 10 -6 0
-10 -28 -10 -65z"/>
<path d="M6152 2290 c-61 -57 16 -145 84 -96 27 20 10 32 -18 12 -28 -20 -33
-20 -52 0 -26 26 -18 34 34 34 43 0 50 3 50 19 0 22 -35 51 -60 51 -9 0 -26
-9 -38 -20z m76 -22 c3 -15 -4 -18 -37 -18 -43 0 -50 7 -29 28 18 18 62 11 66
-10z"/>
</g>
</svg>
